# AST/ASF file generated using VICON BodyLanguage
# -----------------------------------------------
:version 1.10
:name VICON
:units
  mass 1.0
  length 0.45
  angle deg
:documentation
   .ast/.asf automatically generated from VICON data using
   VICON BodyBuilder and BodyLanguage model FoxedUp or BRILLIANT.MOD
:root
   order TX TY TZ RX RY RZ
   axis XYZ
   position 0 0 0  
   orientation 0 0 0 
:bonedata
  begin
     id 1 
     name lhipjoint
     direction 0.606768 -0.715223 0.346827 
     length 2.41543 
     axis 0 0 0  XYZ
  end
  begin
     id 2 
     name lfemur
     direction 0.34202 -0.939693 0  
     length 7.2778  
     axis 0 0 20  XYZ
    dof rx ry rz
    limits (-160.0 20.0)
           (-70.0 70.0)
           (-60.0 70.0)
  end
  begin
     id 3 
     name ltibia
     direction 0.34202 -0.939693 0   
     length 7.61811   
     axis 0 0 20   XYZ
    dof rx
    limits (-10.0 170.0)
  end
  begin
     id 4 
     name lfoot
     direction 0.0823924 -0.226371 0.97055   
     length 2.33618   
     axis -90 7.62852e-016 20   XYZ
    dof rx rz
    limits (-45.0 90.0)
           (-70.0 20.0)
  end
  begin
     id 5 
     name ltoes
     direction 1.53554e-011 -4.21934e-011 1   
     length 1.17015   
     axis -90 7.62852e-016 20   XYZ
    dof rx
    limits (-90.0 20.0)
  end
  begin
     id 6 
     name rhipjoint
     direction -0.6077 -0.714582 0.346516   
     length 2.4176  
     axis 0 0 0  XYZ 
  end
  begin
     id 7 
     name rfemur
     direction -0.34202 -0.939693 0   
     length 7.28127   
     axis 0 0 -20   XYZ
    dof rx ry rz
    limits (-160.0 20.0)
           (-70.0 70.0)
           (-70.0 60.0)
  end
  begin
     id 8 
     name rtibia
     direction -0.34202 -0.939693 0   
     length 7.77648   
     axis 0 0 -20   XYZ
    dof rx
    limits (-10.0 170.0)
 end
 begin
     id 9 
     name rfoot
     direction -0.0809463 -0.222398 0.97159   
     length 2.37533  
     axis -90 -7.62852e-016 -20   XYZ
    dof rx rz
    limits (-45.0 90.0)
           (-20.0 70.0)
  end
  begin
     id 10 
     name rtoes
     direction -1.53568e-011 -4.21714e-011 1   
     length 1.18972   
     axis -90 -7.62852e-016 -20   XYZ
    dof rx
    limits (-90.0 20.0)
  end
  begin
     id 11 
     name lowerback
     direction 0.010968 0.991932 -0.126297   
     length 2.21698   
     axis 0 0 0   XYZ
    dof rx ry rz
    limits (-20.0 45.0)
           (-30.0 30.0)
           (-30.0 30.0)
  end
  begin
     id 12 
     name upperback
     direction 0.0167007 0.997503 -0.0686276   
     length 2.22371   
     axis 0 0 0   XYZ
    dof rx ry rz
    limits (-20.0 45.0)
           (-30.0 30.0)
           (-30.0 30.0)
  end
  begin
     id 13 
     name thorax
     direction 0.0111721 0.999885 -0.0102878   
     length 2.25242   
     axis 0 0 0   XYZ
    dof rx ry rz
    limits (-20.0 45.0)
           (-30.0 30.0)
           (-30.0 30.0)
  end
  begin
     id 14 
     name lowerneck
     direction -0.0120265 0.990428 0.137508   
     length 1.57674   
     axis 0 0 0   XYZ
    dof rx ry rz
    limits (-20.0 45.0)
           (-30.0 30.0)
           (-30.0 30.0)
  end
  begin
     id 15 
     name upperneck
     direction 0.0175669 0.998907 0.0433089   
     length 1.5618   
     axis 0 0 0   XYZ
    dof rx ry rz
    limits (-20.0 45.0)
           (-30.0 30.0)
           (-30.0 30.0)
  end
  begin
     id 16
     name head
     direction 0.00754609 0.99997 0.00185367  
     length 1.60579  
     axis 0 0 0   XYZ
    dof rx ry rz
    limits (-20.0 45.0)
           (-30.0 30.0)
           (-30.0 30.0)
  end
  begin
     id 17 
     name lclavicle
     direction 0.885866 0.429166 -0.176231  
     length 3.44967  
     axis 0 0 0   XYZ
    dof ry rz
    limits (-20.0 10.0)
           (0.0 20.0)
  end
  begin
     id 18 
     name lhumerus
     direction 1 -4.48973e-011 -1.90255e-027   
     length 5.20607   
     axis 180 -30 -90   XYZ
    dof rx ry rz
    limits (-60.0 90.0)
           (-90.0 90.0)
           (-90.0 90.0)
  end
  begin
     id 19
     name lradius
     direction 1 -4.48956e-011 9.87925e-027   
     length 3.39961   
     axis 180 -30 -90   XYZ
    dof rx
    limits (-10.0 170.0)
  end
  begin
     id 20
     name lwrist
     direction 1 -4.48985e-011 1.73247e-026   
     length 1.6998   
     axis -9.60847e-015 90 90   XYZ
    dof ry
    limits (-180.0 0.0)
 end
  begin
     id 21 
     name lhand
     direction 1 -4.48798e-011 3.46119e-026   
     length 0.519693   
     axis -2.21073e-014 90 90   XYZ
    dof rx rz
    limits (-90.0 90.0)
           (-45.0 45.0)
  end
  begin
     id 22 
     name lfingers
     direction 1 -4.48938e-011 6.92797e-026   
     length 0.41899   
     axis -4.42155e-014 90 90   XYZ
    dof rx
    limits (0.0 90.0)
  end
  begin
     id 23
     name lthumb
     direction 0.707107 -6.34952e-011 0.707107   
     length 0.601588   
     axis -90 45 6.0103e-014   XYZ
    dof rx rz
    limits (-45.0 45.0)
           (-45.0 45.0)
  end
  begin
     id 24 
     name rclavicle
     direction -0.866736 0.456792 -0.200276   
     length 3.45032  
     axis 0 0 0   XYZ 
    dof ry rz
    limits (-10.0 20.0)
           (-20.0 0.0)
  end
  begin
     id 25 
     name rhumerus
     direction -1 -4.4897e-011 8.65094e-028  
     length 5.32214   
     axis 180 30 90   XYZ
    dof rx ry rz
    limits (-90.0 60.0)
           (-90.0 90.0)
           (-90.0 90.0)
  end
  begin
     id 26 
     name rradius
     direction -1 -4.48987e-011 1.08427e-026   
     length 3.51208   
     axis 180 30 90   XYZ
    dof rx
    limits (-10.0 170.0)
  end
  begin
     id 27 
     name rwrist
     direction -1 -4.48961e-011 1.73222e-026   
     length 1.75604   
     axis -9.60847e-015 -90 -90   XYZ
    dof ry
    limits (-180.0 0.0)
  end
  begin
     id 28
     name rhand
     direction -1 -4.48895e-011 3.46314e-026   
     length 0.586681   
     axis -2.21073e-014 -90 -90   XYZ
    dof rx rz
    limits (-90.0 90.0)
           (-45.0 45.0)
  end
  begin
     id 29
     name rfingers
     direction -1 -4.48968e-011 6.92916e-026   
     length 0.472997   
     axis -4.42155e-014 -90 -90   XYZ
    dof rx
    limits (0.0 90.0)
  end
  begin
     id 30
     name rthumb
     direction -0.707107 -6.34848e-011 0.707107   
     length 0.679133   
     axis -90 -45 -6.0103e-014   XYZ
    dof rx rz
    limits (-45.0 45.0)
           (-45.0 45.0)
  end
:hierarchy
  begin
    root lhipjoint rhipjoint lowerback
    lhipjoint lfemur
    lfemur ltibia
    ltibia lfoot
    lfoot ltoes
    rhipjoint rfemur
    rfemur rtibia
    rtibia rfoot
    rfoot rtoes
    lowerback upperback
    upperback thorax
    thorax lowerneck lclavicle rclavicle
    lowerneck upperneck
    upperneck head
    lclavicle lhumerus
    lhumerus lradius
    lradius lwrist
    lwrist lhand lthumb
    lhand lfingers
    rclavicle rhumerus
    rhumerus rradius
    rradius rwrist
    rwrist rhand rthumb
    rhand rfingers
  end

#!OML:ASF H:\Dans Jumps\Project 1\Capture day 1\Session 1\subject.ASF
:FULLY-SPECIFIED
:DEGREES
24
root 0.232895 17.5378 -13.9569 5.43341 -2.06926 -1.55507
lowerback -2.40781 -1.12984 -0.126888
upperback 2.33711 -1.54938 1.32346
thorax 3.79533 -0.794514 1.34595
lowerneck -8.33568 -7.92317 -5.65751
upperneck 7.99139 -10.3388 4.02295
head 4.24881 -5.06441 1.46487
rclavicle 1.98039e-014 2.78299e-015
rhumerus -26.0901 -19.1153 -79.4623
rradius 24.7469
rwrist 35.0015
rhand -18.7775 -26.6348
rfingers 7.12502
rthumb 7.51988 -56.4811
lclavicle 1.98039e-014 2.78299e-015
lhumerus -25.6336 6.72927 86.5557
lradius 17.7884
lwrist -3.26404
lhand -26.0628 -3.1772
lfingers 7.12502
lthumb 0.485071 26.802
rfemur -11.3525 -2.43541 19.6182
rtibia 20.2584
rfoot -13.7323 -1.37865
rtoes 10.7074
lfemur -9.50422 7.01213 -16.9562
ltibia 17.6516
lfoot -11.0951 5.31948
ltoes -1.83694
25
root 0.239682 17.5389 -13.9475 5.40377 -2.14395 -1.54883
lowerback -2.47186 -1.13081 -0.149125
upperback 2.32084 -1.54931 1.30451
thorax 3.81478 -0.794761 1.33777
lowerneck -8.39169 -7.93667 -5.65277
upperneck 7.95044 -10.3637 4.12308
head 4.25179 -5.07068 1.49087
rclavicle 1.50579e-014 -1.56046e-014
rhumerus -26.4758 -19.5315 -79.3759
rradius 24.7196
rwrist 35.0827
rhand -18.8952 -26.5765
rfingers 7.12502
rthumb 7.40636 -56.4269
lclavicle 1.50579e-014 -1.56046e-014
lhumerus -25.9855 7.51033 86.2403
lradius 17.5645
lwrist -3.68961
lhand -26.1886 -3.3078
lfingers 7.12502
lthumb 0.363634 26.6716
rfemur -11.2498 -2.36595 19.5794
rtibia 20.1715
rfoot -13.71 -1.38949
rtoes 10.674
lfemur -9.36306 7.04934 -16.9816
ltibia 17.5386
lfoot -11.0994 5.34077
ltoes -1.74316
26
root 0.246427 17.5399 -13.9381 5.37754 -2.2099 -1.53744
lowerback -2.54397 -1.13528 -0.172404
upperback 2.30792 -1.55389 1.28495
thorax 3.8424 -0.797375 1.32908
lowerneck -8.45827 -7.94592 -5.64641
upperneck 7.91385 -10.382 4.21667
head 4.25711 -5.0738 1.51465
rclavicle -2.04997e-015 5.06901e-015
rhumerus -26.8526 -19.9287 -79.2887
rradius 24.7093
rwrist 35.0786
rhand -18.9912 -26.538
rfingers 7.12502
rthumb 7.31362 -56.3916
lclavicle -2.04997e-015 5.06901e-015
lhumerus -26.3229 8.34341 85.8822
lradius 17.3323
lwrist -4.11427
lhand -26.2473 -3.37912
lfingers 7.12502
lthumb 0.30688 26.6004
rfemur -11.1536 -2.30092 19.5351
rtibia 20.0917
rfoot -13.6961 -1.40072
rtoes 10.6509
lfemur -9.22535 7.0766 -17.013
ltibia 17.4217
lfoot -11.099 5.36107
ltoes -1.6453
27
root 0.253052 17.5409 -13.9288 5.35723 -2.26749 -1.52091
lowerback -2.62291 -1.14313 -0.199875
upperback 2.29327 -1.56281 1.26678
thorax 3.87236 -0.802282 1.32377
lowerneck -8.52553 -7.9501 -5.64484
upperneck 7.88013 -10.3926 4.30772
head 4.26318 -5.0734 1.53888
rclavicle -8.69683e-015 -4.17448e-015
rhumerus -27.2176 -20.3164 -79.1944
rradius 24.6977
rwrist 35.0266
rhand -19.0734 -26.5218
rfingers 7.12502
rthumb 7.23426 -56.3781
lclavicle -8.69683e-015 -4.17448e-015
lhumerus -26.6473 9.20872 85.4899
lradius 17.0834
lwrist -4.52639
lhand -26.2756 -3.41156
lfingers 7.12502
lthumb 0.279604 26.568
rfemur -11.0667 -2.24335 19.4863
rtibia 20.0194
rfoot -13.6892 -1.41213
rtoes 10.6256
lfemur -9.09331 7.09509 -17.0503
ltibia 17.3
lfoot -11.0945 5.37954
ltoes -1.5396
28
root 0.25955 17.5421 -13.9194 5.34366 -2.31632 -1.4997
lowerback -2.71121 -1.1541 -0.231083
upperback 2.278 -1.57576 1.24988
thorax 3.90725 -0.809324 1.32142
lowerneck -8.59232 -7.95061 -5.64528
upperneck 7.84529 -10.3976 4.39453
head 4.26843 -5.07048 1.56263
rclavicle -3.65764e-014 7.25564e-015
rhumerus -27.5657 -20.7024 -79.0908
rradius 24.6731
rwrist 34.9747
rhand -19.1665 -26.5187
rfingers 7.12502
rthumb 7.14445 -56.3782
lclavicle -3.65764e-014 7.25564e-015
lhumerus -26.955 10.0937 85.0667
lradius 16.8196
lwrist -4.93932
lhand -26.2671 -3.37428
lfingers 7.12502
lthumb 0.287748 26.6053
rfemur -10.9887 -2.19853 19.4333
rtibia 19.9521
rfoot -13.6831 -1.41839
rtoes 10.6145
lfemur -8.96862 7.10659 -17.0935
ltibia 17.1747
lfoot -11.0864 5.39636
ltoes -1.44064
29
root 0.265861 17.5434 -13.9101 5.33753 -2.36157 -1.47645
lowerback -2.80751 -1.16575 -0.265507
upperback 2.26138 -1.58951 1.23534
thorax 3.94545 -0.816892 1.32307
lowerneck -8.65866 -7.94821 -5.64734
upperneck 7.81034 -10.3981 4.4772
head 4.27322 -5.06559 1.58577
rclavicle 7.26806e-015 -1.0635e-014
rhumerus -27.8944 -21.0798 -78.9788
rradius 24.6337
rwrist 34.9342
rhand -19.2503 -26.5435
rfingers 7.12502
rthumb 7.06356 -56.4056
lclavicle 7.26806e-015 -1.0635e-014
lhumerus -27.2394 11.0049 84.6108
lradius 16.5291
lwrist -5.40262
lhand -26.2429 -3.31656
lfingers 7.12502
lthumb 0.31112 26.663
rfemur -10.9204 -2.16213 19.3793
rtibia 19.8862
rfoot -13.6806 -1.42074
rtoes 10.5976
lfemur -8.8537 7.11874 -17.1397
ltibia 17.0488
lfoot -11.0767 5.40845
ltoes -1.34292
30
root 0.271887 17.5447 -13.9009 5.335 -2.40411 -1.45608
lowerback -2.91086 -1.17806 -0.299583
upperback 2.24479 -1.60425 1.22462
thorax 3.98783 -0.825011 1.32822
lowerneck -8.71816 -7.94366 -5.64951
upperneck 7.7711 -10.3951 4.55368
head 4.27508 -5.05949 1.6077
rclavicle -1.39895e-014 -6.36111e-015
rhumerus -28.2056 -21.4693 -78.8472
rradius 24.5616
rwrist 34.9752
rhand -19.3611 -26.5603
rfingers 7.12502
rthumb 6.95657 -56.426
lclavicle -1.39895e-014 -6.36111e-015
lhumerus -27.5042 11.9585 84.1157
lradius 16.211
lwrist -5.9739
lhand -26.1914 -3.22723
lfingers 7.12502
lthumb 0.36084 26.7522
rfemur -10.8547 -2.12765 19.33
rtibia 19.8179
rfoot -13.6769 -1.42454
rtoes 10.5845
lfemur -8.7455 7.134 -17.1822
ltibia 16.925
lfoot -11.0661 5.41574
ltoes -1.26125
